<svg width="25" height="24" viewBox="0 0 25 24" fill="none" xmlns="http://www.w3.org/2000/svg">
<g clip-path="url(#clip0_25_12)">
<path fill-rule="evenodd" clip-rule="evenodd" d="M0.0556946 12.067C0.0556946 18.033 4.38869 22.994 10.0557 24V15.333H7.05569V12H10.0557V9.333C10.0557 6.333 11.9887 4.667 14.7227 4.667C15.5887 4.667 16.5227 4.8 17.3887 4.933V8H15.8557C14.3887 8 14.0557 8.733 14.0557 9.667V12H17.2557L16.7227 15.333H14.0557V24C19.7227 22.994 24.0557 18.034 24.0557 12.067C24.0557 5.43 18.6557 0 12.0557 0C5.45569 0 0.0556946 5.43 0.0556946 12.067Z" fill="#fff"/>
</g>
<defs>
<clipPath id="clip0_25_12">
<rect width="24" height="24" fill="white" transform="translate(0.0556946)"/>
</clipPath>
</defs>
</svg>
