<svg width="25" height="24" viewBox="0 0 25 24" fill="none" xmlns="http://www.w3.org/2000/svg">
<path fill-rule="evenodd" clip-rule="evenodd" d="M7.52069 1.066C8.69369 1.012 9.06769 1 12.0557 1C15.0437 1 15.4177 1.013 16.5897 1.066C17.7617 1.119 18.5617 1.306 19.2617 1.577C19.9947 1.854 20.6597 2.287 21.2097 2.847C21.7697 3.396 22.2017 4.06 22.4777 4.794C22.7497 5.494 22.9357 6.294 22.9897 7.464C23.0437 8.639 23.0557 9.013 23.0557 12C23.0557 14.988 23.0427 15.362 22.9897 16.535C22.9367 17.705 22.7497 18.505 22.4777 19.205C22.2017 19.9391 21.769 20.6042 21.2097 21.154C20.6597 21.714 19.9947 22.146 19.2617 22.422C18.5617 22.694 17.7617 22.88 16.5917 22.934C15.4177 22.988 15.0437 23 12.0557 23C9.06769 23 8.69369 22.987 7.52069 22.934C6.35069 22.881 5.55069 22.694 4.85069 22.422C4.11662 22.146 3.45151 21.7133 2.90169 21.154C2.34207 20.6047 1.90901 19.9399 1.63269 19.206C1.36169 18.506 1.17569 17.706 1.12169 16.536C1.06769 15.361 1.05569 14.987 1.05569 12C1.05569 9.012 1.06869 8.638 1.12169 7.466C1.17469 6.294 1.36169 5.494 1.63269 4.794C1.90942 4.06008 2.34281 3.39531 2.90269 2.846C3.45174 2.2865 4.11617 1.85344 4.84969 1.577C5.54969 1.306 6.34969 1.12 7.51969 1.066H7.52069ZM16.5007 3.046C15.3407 2.993 14.9927 2.982 12.0557 2.982C9.11869 2.982 8.77069 2.993 7.61069 3.046C6.53769 3.095 5.95569 3.274 5.56769 3.425C5.05469 3.625 4.68769 3.862 4.30269 4.247C3.93774 4.60205 3.65687 5.03428 3.48069 5.512C3.32969 5.9 3.15069 6.482 3.10169 7.555C3.04869 8.715 3.03769 9.063 3.03769 12C3.03769 14.937 3.04869 15.285 3.10169 16.445C3.15069 17.518 3.32969 18.1 3.48069 18.488C3.65669 18.965 3.93769 19.398 4.30269 19.753C4.65769 20.118 5.09069 20.399 5.56769 20.575C5.95569 20.726 6.53769 20.905 7.61069 20.954C8.77069 21.007 9.11769 21.018 12.0557 21.018C14.9937 21.018 15.3407 21.007 16.5007 20.954C17.5737 20.905 18.1557 20.726 18.5437 20.575C19.0567 20.375 19.4237 20.138 19.8087 19.753C20.1737 19.398 20.4547 18.965 20.6307 18.488C20.7817 18.1 20.9607 17.518 21.0097 16.445C21.0627 15.285 21.0737 14.937 21.0737 12C21.0737 9.063 21.0627 8.715 21.0097 7.555C20.9607 6.482 20.7817 5.9 20.6307 5.512C20.4307 4.999 20.1937 4.632 19.8087 4.247C19.4536 3.88207 19.0214 3.60121 18.5437 3.425C18.1557 3.274 17.5737 3.095 16.5007 3.046ZM10.6507 15.391C11.4354 15.7176 12.3091 15.7617 13.1226 15.5157C13.9362 15.2697 14.6391 14.7489 15.1113 14.0422C15.5835 13.3356 15.7957 12.4869 15.7117 11.6411C15.6277 10.7953 15.2527 10.005 14.6507 9.405C14.2669 9.02148 13.8029 8.72781 13.292 8.54515C12.7811 8.36248 12.2361 8.29536 11.6962 8.34862C11.1563 8.40187 10.6348 8.57418 10.1695 8.85313C9.70415 9.13208 9.30644 9.51074 9.005 9.96185C8.70356 10.413 8.50588 10.9253 8.42621 11.462C8.34654 11.9986 8.38685 12.5463 8.54423 13.0655C8.70162 13.5847 8.97218 14.0626 9.33642 14.4647C9.70065 14.8668 10.1495 15.1832 10.6507 15.391ZM8.05769 8.002C8.58272 7.47697 9.20601 7.0605 9.89199 6.77636C10.578 6.49222 11.3132 6.34597 12.0557 6.34597C12.7982 6.34597 13.5334 6.49222 14.2194 6.77636C14.9054 7.0605 15.5287 7.47697 16.0537 8.002C16.5787 8.52702 16.9952 9.15032 17.2793 9.8363C17.5635 10.5223 17.7097 11.2575 17.7097 12C17.7097 12.7425 17.5635 13.4777 17.2793 14.1637C16.9952 14.8497 16.5787 15.473 16.0537 15.998C14.9934 17.0583 13.5552 17.654 12.0557 17.654C10.5562 17.654 9.11803 17.0583 8.05769 15.998C6.99736 14.9377 6.40167 13.4995 6.40167 12C6.40167 10.5005 6.99736 9.06234 8.05769 8.002ZM18.9637 7.188C19.0938 7.06527 19.198 6.91768 19.27 6.75397C19.342 6.59027 19.3805 6.41377 19.3831 6.23493C19.3857 6.05609 19.3524 5.87855 19.2852 5.71281C19.2179 5.54707 19.1181 5.39651 18.9917 5.27004C18.8652 5.14357 18.7146 5.04376 18.5489 4.97652C18.3831 4.90928 18.2056 4.87598 18.0268 4.87858C17.8479 4.88119 17.6714 4.91965 17.5077 4.9917C17.344 5.06374 17.1964 5.1679 17.0737 5.298C16.835 5.55103 16.7043 5.88712 16.7094 6.23493C16.7145 6.58274 16.8549 6.91488 17.1009 7.16084C17.3468 7.40681 17.679 7.54723 18.0268 7.5523C18.3746 7.55737 18.7107 7.42669 18.9637 7.188Z" fill="#000"/>
</svg>
