<svg width="66" height="30" viewBox="0 0 66 30" fill="none" xmlns="http://www.w3.org/2000/svg">
<path d="M41.1033 11.3067C40.6351 10.8383 40.0792 10.4667 39.4674 10.2132C38.8556 9.95971 38.1998 9.82922 37.5375 9.82922C36.8752 9.82922 36.2194 9.95971 35.6076 10.2132C34.9958 10.4667 34.4399 10.8383 33.9717 11.3067L33 12.2784L32.0283 11.3067C31.0826 10.361 29.7999 9.82971 28.4625 9.82971C27.1251 9.82971 25.8424 10.361 24.8967 11.3067C23.9509 12.2524 23.4196 13.5351 23.4196 14.8726C23.4196 16.21 23.9509 17.4927 24.8967 18.4384L25.8683 19.4101L33 26.5417L40.1317 19.4101L41.1033 18.4384C41.5717 17.9702 41.9433 17.4143 42.1968 16.8025C42.4504 16.1906 42.5808 15.5348 42.5808 14.8726C42.5808 14.2103 42.4504 13.5545 42.1968 12.9427C41.9433 12.3308 41.5717 11.7749 41.1033 11.3067Z" fill="#E58776"/>
<path d="M19.1033 4.7258C18.6351 4.25739 18.0792 3.88581 17.4674 3.63229C16.8556 3.37878 16.1998 3.24829 15.5375 3.24829C14.8752 3.24829 14.2194 3.37878 13.6076 3.63229C12.9958 3.88581 12.4399 4.25739 11.9717 4.7258L11 5.69746L10.0283 4.7258C9.08261 3.78008 7.79994 3.24878 6.4625 3.24878C5.12505 3.24878 3.84238 3.78008 2.89666 4.7258C1.95095 5.67152 1.41965 6.95418 1.41965 8.29163C1.41965 9.62908 1.95095 10.9117 2.89666 11.8575L3.86833 12.8291L11 19.9608L18.1317 12.8291L19.1033 11.8575C19.5717 11.3893 19.9433 10.8334 20.1968 10.2215C20.4504 9.6097 20.5808 8.95391 20.5808 8.29163C20.5808 7.62935 20.4504 6.97356 20.1968 6.36172C19.9433 5.74988 19.5717 5.19399 19.1033 4.7258V4.7258Z" stroke="#E58776" stroke-width="1.5" stroke-linecap="round" stroke-linejoin="round"/>
<path d="M63.1033 4.7258C62.6351 4.25739 62.0792 3.88581 61.4674 3.63229C60.8556 3.37878 60.1998 3.24829 59.5375 3.24829C58.8752 3.24829 58.2194 3.37878 57.6076 3.63229C56.9958 3.88581 56.4399 4.25739 55.9717 4.7258L55 5.69746L54.0283 4.7258C53.0826 3.78008 51.7999 3.24878 50.4625 3.24878C49.1251 3.24878 47.8424 3.78008 46.8967 4.7258C45.9509 5.67152 45.4196 6.95418 45.4196 8.29163C45.4196 9.62908 45.9509 10.9117 46.8967 11.8575L47.8683 12.8291L55 19.9608L62.1317 12.8291L63.1033 11.8575C63.5717 11.3893 63.9433 10.8334 64.1968 10.2215C64.4504 9.6097 64.5808 8.95391 64.5808 8.29163C64.5808 7.62935 64.4504 6.97356 64.1968 6.36172C63.9433 5.74988 63.5717 5.19399 63.1033 4.7258V4.7258Z" stroke="#E58776" stroke-width="1.5" stroke-linecap="round" stroke-linejoin="round"/>
</svg>
