<svg width="25" height="24" viewBox="0 0 25 24" fill="none" xmlns="http://www.w3.org/2000/svg">
<g clip-path="url(#clip0_25_18)">
<path d="M23.6987 4.93695C22.8637 5.30695 21.9667 5.55696 21.0237 5.66996C21.9967 5.08775 22.7246 4.17142 23.0717 3.09195C22.1575 3.63494 21.157 4.01715 20.1137 4.22196C19.4121 3.47282 18.4828 2.97628 17.47 2.80943C16.4573 2.64258 15.4178 2.81475 14.5129 3.29921C13.6081 3.78367 12.8885 4.55332 12.4658 5.48866C12.0432 6.424 11.9412 7.4727 12.1757 8.47195C10.3234 8.37895 8.51132 7.8975 6.85712 7.05886C5.20291 6.22022 3.74353 5.04312 2.57369 3.60396C2.17369 4.29396 1.94369 5.09396 1.94369 5.94596C1.94324 6.71295 2.13212 7.4682 2.49357 8.14469C2.85502 8.82118 3.37785 9.39799 4.01569 9.82396C3.27597 9.80042 2.55256 9.60054 1.90569 9.24095V9.30095C1.90562 10.3767 2.27772 11.4193 2.95887 12.252C3.64002 13.0846 4.58826 13.6559 5.64269 13.869C4.95647 14.0547 4.23703 14.082 3.53869 13.949C3.83619 14.8746 4.41569 15.684 5.19606 16.2639C5.97643 16.8438 6.91861 17.1651 7.89069 17.183C6.24052 18.4784 4.20258 19.181 2.10469 19.178C1.73307 19.1781 1.36177 19.1564 0.992691 19.113C3.12217 20.4821 5.60103 21.2088 8.13269 21.206C16.7027 21.206 21.3877 14.108 21.3877 7.95195C21.3877 7.75195 21.3827 7.54995 21.3737 7.34995C22.285 6.69093 23.0716 5.87485 23.6967 4.93995L23.6987 4.93695V4.93695Z" fill="#000"/>
</g>
<defs>
<clipPath id="clip0_25_18">
<rect width="24" height="24" fill="white" transform="translate(0.0556946)"/>
</clipPath>
</defs>
</svg>
