<svg width="131" height="133" viewBox="0 0 131 133" fill="none" xmlns="http://www.w3.org/2000/svg">
<path d="M71.3018 0.5912C82.2064 1.94598 91.2588 8.56549 100.768 14.0717C110.662 19.8008 122.993 23.4334 128.268 33.5768C133.543 43.7189 128.857 55.8628 128.443 67.287C128.027 78.7907 131.716 91.2427 125.823 101.131C119.907 111.057 107.49 114.352 97.2281 119.664C86.9978 124.96 77.175 133.03 65.6807 132.264C54.2298 131.502 45.7636 121.982 36.2248 115.601C26.9052 109.367 16.3871 104.54 10.2285 95.17C3.78172 85.3617 -0.0164974 73.544 0.889509 61.8417C1.78404 50.2877 8.76664 40.4454 15.2111 30.814C21.5338 21.3644 28.0556 11.6746 38.0649 6.28144C48.1316 0.857328 59.9541 -0.818644 71.3018 0.5912Z" fill="#E58776"/>
</svg>
